HIERARCHY
ROOT Hips
{
	OFFSET 0.000000 71.427986 0.000000
	CHANNELS 6 Xposition Yposition Zposition Xrotation Yrotation Zrotation
	JOINT Pelvis
	{
		OFFSET 0.000000 0.000000 0.000000
		CHANNELS 3 Xrotation Yrotation Zrotation
		JOINT LeftUpLeg
		{
			OFFSET 6.797100 -2.508499 -1.318700
			CHANNELS 3 Xrotation Yrotation Zrotation
			JOINT LeftLeg
			{
				OFFSET 0.069008 -29.241863 0.690200
				CHANNELS 3 Xrotation Yrotation Zrotation
				JOINT LeftFoot
				{
					OFFSET -0.069008 -29.568123 -0.266800
					CHANNELS 3 Xrotation Yrotation Zrotation
					JOINT LeftToeBase
					{
						OFFSET 3.145500 -8.631000 16.059900
						CHANNELS 3 Xrotation Yrotation Zrotation
						End Site
						{
							OFFSET 0.000000 18.501587 0.000000
						}
					}
				}
			}
			JOINT Left_ShortSleeve
			{
				OFFSET 0.265923 -10.480953 1.153800
				CHANNELS 3 Xrotation Yrotation Zrotation
				End Site
				{
					OFFSET 1.725763 19.823879 0.000000
				}
			}
		}
		JOINT RightUpLeg
		{
			OFFSET -6.797100 -2.508499 -1.318700
			CHANNELS 3 Xrotation Yrotation Zrotation
			JOINT RightLeg
			{
				OFFSET -0.082453 -29.241932 0.688000
				CHANNELS 3 Xrotation Yrotation Zrotation
				JOINT RightFoot
				{
					OFFSET 0.082453 -29.568058 -0.264600
					CHANNELS 3 Xrotation Yrotation Zrotation
					JOINT RightToeBase
					{
						OFFSET -3.115300 -8.682800 16.113400
						CHANNELS 3 Xrotation Yrotation Zrotation
						End Site
						{
							OFFSET 0.000000 18.567114 0.000000
						}
					}
				}
			}
			JOINT Right_ShortSleeve
			{
				OFFSET -0.265923 -10.480953 1.153800
				CHANNELS 3 Xrotation Yrotation Zrotation
				End Site
				{
					OFFSET -1.725766 19.823910 0.000000
				}
			}
		}
	}
	JOINT Spine
	{
		OFFSET 0.000000 13.368103 0.470500
		CHANNELS 3 Xrotation Yrotation Zrotation
		JOINT Spine1
		{
			OFFSET 0.147000 13.837402 0.538800
			CHANNELS 3 Xrotation Yrotation Zrotation
			JOINT Spine2
			{
				OFFSET 0.168000 16.242897 -1.435500
				CHANNELS 3 Xrotation Yrotation Zrotation
				JOINT Neck
				{
					OFFSET 0.217200 18.631500 -1.679100
					CHANNELS 3 Xrotation Yrotation Zrotation
					JOINT Head
					{
						OFFSET 0.000000 6.599396 1.385900
						CHANNELS 3 Xrotation Yrotation Zrotation
						JOINT Hat
						{
							OFFSET -0.532200 27.220596 -10.096100
							CHANNELS 3 Xrotation Yrotation Zrotation
							End Site
							{
								OFFSET 0.000000 22.029861 0.000000
							}
						}
						JOINT HairD
						{
							OFFSET -10.777400 17.437393 -1.325900
							CHANNELS 3 Xrotation Yrotation Zrotation
							JOINT HairD1
							{
								OFFSET -3.290299 -11.051193 1.062200
								CHANNELS 3 Xrotation Yrotation Zrotation
								End Site
								{
									OFFSET 0.000000 11.579437 0.000000
								}
							}
						}
						JOINT HairB
						{
							OFFSET -10.777400 17.437393 1.467900
							CHANNELS 3 Xrotation Yrotation Zrotation
							JOINT HairB1
							{
								OFFSET -1.561200 -12.956299 3.590200
								CHANNELS 3 Xrotation Yrotation Zrotation
								End Site
								{
									OFFSET 0.000000 13.534866 0.000000
								}
							}
						}
						JOINT HairA
						{
							OFFSET 9.713100 17.437393 1.467900
							CHANNELS 3 Xrotation Yrotation Zrotation
							JOINT HairA1
							{
								OFFSET 1.561200 -12.956299 3.590200
								CHANNELS 3 Xrotation Yrotation Zrotation
								End Site
								{
									OFFSET 0.000000 13.534866 0.000000
								}
							}
						}
						JOINT HairC
						{
							OFFSET 9.713100 17.437393 -1.325900
							CHANNELS 3 Xrotation Yrotation Zrotation
							JOINT HairC1
							{
								OFFSET 3.290300 -11.051193 1.062200
								CHANNELS 3 Xrotation Yrotation Zrotation
								End Site
								{
									OFFSET 0.000000 11.579437 0.000000
								}
							}
						}
					}
				}
				JOINT LeftShoulder
				{
					OFFSET 5.101800 15.108002 -2.763700
					CHANNELS 3 Xrotation Yrotation Zrotation
					JOINT LeftArm
					{
						OFFSET 9.825497 2.506317 -1.597400
						CHANNELS 3 Xrotation Yrotation Zrotation
						JOINT LeftForeArm
						{
							OFFSET 21.966244 0.000000 0.000000
							CHANNELS 3 Xrotation Yrotation Zrotation
							JOINT LeftHand
							{
								OFFSET 33.879036 0.000000 0.000000
								CHANNELS 3 Xrotation Yrotation Zrotation
								JOINT LeftHandThumb1
								{
									OFFSET 6.715286 -2.359680 3.363841
									CHANNELS 3 Xrotation Yrotation Zrotation
									JOINT LeftHandThumb2
									{
										OFFSET 2.507072 -1.447464 1.447461
										CHANNELS 3 Xrotation Yrotation Zrotation
										JOINT LeftHandThumb3
										{
											OFFSET 2.898338 -1.673355 1.673357
											CHANNELS 3 Xrotation Yrotation Zrotation
											End Site
											{
												OFFSET -0.295959 3.727692 -0.131651
											}
										}
									}
								}
								JOINT LeftHandIndex1
								{
									OFFSET 14.190811 -0.254547 3.840278
									CHANNELS 3 Xrotation Yrotation Zrotation
									JOINT LeftHandIndex2
									{
										OFFSET 3.551727 0.000000 -0.000000
										CHANNELS 3 Xrotation Yrotation Zrotation
										JOINT LeftHandIndex3
										{
											OFFSET 2.894196 0.000000 0.000000
											CHANNELS 3 Xrotation Yrotation Zrotation
											End Site
											{
												OFFSET -1.000603 2.690872 0.366626
											}
										}
									}
								}
								JOINT LeftHandMiddle1
								{
									OFFSET 13.776489 0.000000 0.000000
									CHANNELS 3 Xrotation Yrotation Zrotation
									JOINT LeftHandMiddle2
									{
										OFFSET 3.438232 0.000000 0.000000
										CHANNELS 3 Xrotation Yrotation Zrotation
										JOINT LeftHandMiddle3
										{
											OFFSET 3.691551 0.000000 0.000000
											CHANNELS 3 Xrotation Yrotation Zrotation
											End Site
											{
												OFFSET -1.082298 3.499527 0.457670
											}
										}
									}
								}
								JOINT LeftHandRing1
								{
									OFFSET 13.966164 -0.268127 -3.067488
									CHANNELS 3 Xrotation Yrotation Zrotation
									JOINT LeftHandRing2
									{
										OFFSET 3.162567 0.000000 0.000000
										CHANNELS 3 Xrotation Yrotation Zrotation
										JOINT LeftHandRing3
										{
											OFFSET 3.324348 0.000000 0.000000
											CHANNELS 3 Xrotation Yrotation Zrotation
											End Site
											{
												OFFSET -0.861900 3.184998 0.405154
											}
										}
									}
								}
								JOINT LeftHandPinky1
								{
									OFFSET 13.131393 -0.168503 -5.746925
									CHANNELS 3 Xrotation Yrotation Zrotation
									JOINT LeftHandPinky2
									{
										OFFSET 2.849182 0.000000 0.000000
										CHANNELS 3 Xrotation Yrotation Zrotation
										JOINT LeftHandPinky3
										{
											OFFSET 2.805038 0.000000 0.000000
											CHANNELS 3 Xrotation Yrotation Zrotation
											End Site
											{
												OFFSET -0.882500 2.642609 0.325652
											}
										}
									}
								}
							}
							JOINT Left_Sleeve
							{
								OFFSET 6.592125 -0.646545 0.805568
								CHANNELS 3 Xrotation Yrotation Zrotation
								End Site
								{
									OFFSET -0.000179 20.275787 -0.000000
								}
							}
						}
					}
				}
				JOINT RightShoulder
				{
					OFFSET -5.731700 15.108002 -2.763700
					CHANNELS 3 Xrotation Yrotation Zrotation
					JOINT RightArm
					{
						OFFSET -9.825497 2.506317 -1.597400
						CHANNELS 3 Xrotation Yrotation Zrotation
						JOINT RightForeArm
						{
							OFFSET -21.966242 0.000000 0.000000
							CHANNELS 3 Xrotation Yrotation Zrotation
							JOINT RightHand
							{
								OFFSET -33.879032 0.000000 0.000000
								CHANNELS 3 Xrotation Yrotation Zrotation
								JOINT RightHandThumb1
								{
									OFFSET -6.715286 -2.359680 3.363841
									CHANNELS 3 Xrotation Yrotation Zrotation
									JOINT RightHandThumb2
									{
										OFFSET -2.507072 -1.447464 1.447461
										CHANNELS 3 Xrotation Yrotation Zrotation
										JOINT RightHandThumb3
										{
											OFFSET -2.898338 -1.673355 1.673357
											CHANNELS 3 Xrotation Yrotation Zrotation
											End Site
											{
												OFFSET 0.295959 3.727692 -0.131651
											}
										}
									}
								}
								JOINT RightHandIndex1
								{
									OFFSET -14.190811 -0.254547 3.840278
									CHANNELS 3 Xrotation Yrotation Zrotation
									JOINT RightHandIndex2
									{
										OFFSET -3.551727 0.000000 -0.000000
										CHANNELS 3 Xrotation Yrotation Zrotation
										JOINT RightHandIndex3
										{
											OFFSET -2.894196 0.000000 0.000000
											CHANNELS 3 Xrotation Yrotation Zrotation
											End Site
											{
												OFFSET 1.000603 2.690872 0.366626
											}
										}
									}
								}
								JOINT RightHandMiddle1
								{
									OFFSET -13.776489 0.000000 0.000000
									CHANNELS 3 Xrotation Yrotation Zrotation
									JOINT RightHandMiddle2
									{
										OFFSET -3.438232 0.000000 0.000000
										CHANNELS 3 Xrotation Yrotation Zrotation
										JOINT RightHandMiddle3
										{
											OFFSET -3.691551 0.000000 0.000000
											CHANNELS 3 Xrotation Yrotation Zrotation
											End Site
											{
												OFFSET 1.082298 3.499527 0.457670
											}
										}
									}
								}
								JOINT RightHandRing1
								{
									OFFSET -13.966164 -0.268127 -3.067488
									CHANNELS 3 Xrotation Yrotation Zrotation
									JOINT RightHandRing2
									{
										OFFSET -3.162567 0.000000 0.000000
										CHANNELS 3 Xrotation Yrotation Zrotation
										JOINT RightHandRing3
										{
											OFFSET -3.324348 0.000000 0.000000
											CHANNELS 3 Xrotation Yrotation Zrotation
											End Site
											{
												OFFSET 0.861900 3.184998 0.405154
											}
										}
									}
								}
								JOINT RightHandPinky1
								{
									OFFSET -13.131393 -0.168503 -5.746925
									CHANNELS 3 Xrotation Yrotation Zrotation
									JOINT RightHandPinky2
									{
										OFFSET -2.849182 0.000000 0.000000
										CHANNELS 3 Xrotation Yrotation Zrotation
										JOINT RightHandPinky3
										{
											OFFSET -2.805038 0.000000 0.000000
											CHANNELS 3 Xrotation Yrotation Zrotation
											End Site
											{
												OFFSET 0.882500 2.642609 0.325652
											}
										}
									}
								}
							}
							JOINT Right_Sleeve
							{
								OFFSET -6.592125 -0.646545 0.805568
								CHANNELS 3 Xrotation Yrotation Zrotation
								End Site
								{
									OFFSET 0.000179 20.275787 -0.000000
								}
							}
						}
					}
				}
				JOINT Bind_Right_JacketString
				{
					OFFSET -3.534800 11.969597 7.200700
					CHANNELS 3 Xrotation Yrotation Zrotation
					JOINT Bind_Right_JacketString1
					{
						OFFSET -0.319900 -6.102600 2.794100
						CHANNELS 3 Xrotation Yrotation Zrotation
						End Site
						{
							OFFSET 0.000000 6.719452 0.000000
						}
					}
				}
				JOINT Bind_Left_JacketString
				{
					OFFSET 2.904800 11.969597 7.200700
					CHANNELS 3 Xrotation Yrotation Zrotation
					JOINT Bind_Left_JacketString1
					{
						OFFSET 0.364800 -5.904503 3.186800
						CHANNELS 3 Xrotation Yrotation Zrotation
						End Site
						{
							OFFSET 0.000000 6.719513 0.000000
						}
					}
				}
				JOINT HairE
				{
					OFFSET 5.915200 17.612701 -11.592200
					CHANNELS 3 Xrotation Yrotation Zrotation
					JOINT HairE1
					{
						OFFSET 0.289200 -7.171898 -1.284500
						CHANNELS 3 Xrotation Yrotation Zrotation
						End Site
						{
							OFFSET 0.000000 7.291756 0.000000
						}
					}
				}
				JOINT HairF
				{
					OFFSET -0.864800 17.612701 -11.592200
					CHANNELS 3 Xrotation Yrotation Zrotation
					JOINT HairF1
					{
						OFFSET 0.000000 -14.087097 -2.127501
						CHANNELS 3 Xrotation Yrotation Zrotation
						End Site
						{
							OFFSET 0.000000 14.246841 0.000000
						}
					}
				}
				JOINT HairG
				{
					OFFSET -8.087700 17.612701 -11.592200
					CHANNELS 3 Xrotation Yrotation Zrotation
					JOINT HairG1
					{
						OFFSET -0.293600 -6.081398 -0.910100
						CHANNELS 3 Xrotation Yrotation Zrotation
						End Site
						{
							OFFSET 0.000000 6.156120 0.000000
						}
					}
				}
			}
		}
	}
	JOINT Pouch
	{
		OFFSET 0.000000 4.394501 10.847300
		CHANNELS 3 Xrotation Yrotation Zrotation
		End Site
		{
			OFFSET 0.000000 21.880577 0.000000
		}
	}
	JOINT Bag
	{
		OFFSET -13.229000 4.813004 -0.593300
		CHANNELS 3 Xrotation Yrotation Zrotation
		End Site
		{
			OFFSET 0.000000 21.880577 0.000000
		}
	}
	JOINT OccupyGuyFacialAnim_Joint
	{
		OFFSET 1.000000 -70.206398 -1.655000
		CHANNELS 3 Xrotation Yrotation Zrotation
		End Site
		{
			OFFSET 0.000000 21.880577 0.000000
		}
	}
}
MOTION
Frames: 4
Frame Time: 0.016667
48.922276 70.087608 30.372782 4.681501 68.586854 -5.001053 0.000000 -0.000000 0.000000 -18.650929 -10.518352 1.155459 19.450106 0.761124 -7.676135 -1.159286 -19.284242 6.191095 0.000000 -0.000000 -0.000000 0.000001 -0.000001 -0.000000 0.165218 -14.575953 0.386581 40.383343 -4.774534 -3.737683 -11.794667 -13.373066 11.108037 -0.000003 -0.000003 0.000002 0.000000 -0.000002 -0.000000 1.417643 15.566578 -1.612821 0.302476 12.349546 -1.690998 0.319023 12.258863 -2.268428 30.683792 -16.732673 8.274231 -37.265587 -69.684404 -3.375927 -0.000000 0.000000 -0.000000 -0.000000 0.000000 -0.000000 -0.000000 0.000000 0.000000 -0.000000 0.000000 -0.000000 0.000001 0.000000 -0.000000 -0.000000 0.000000 -0.000000 0.000001 0.000000 -0.000000 -0.000000 0.000000 -0.000000 -0.000000 0.000000 -0.000000 -2.027415 -8.616102 -14.640797 564.659170 -127.569533 506.102155 -0.000015 -67.460802 -0.000015 -133.641517 -5.524193 50.251963 -10.936357 -6.746927 10.333053 -18.089367 8.879821 2.392690 -0.000001 -0.000000 -0.000001 5.890368 8.200097 -88.621827 6.193128 5.841075 -93.357628 0.000001 -0.000001 -0.000000 7.765561 7.904032 -107.399493 3.749172 5.461709 -68.913494 0.000003 0.000000 -0.000001 7.314693 8.035583 -105.794979 3.608012 5.405445 -67.422915 -0.000002 0.000001 0.000001 10.390459 6.780241 -113.877142 1.172183 3.517171 -36.854034 -0.000003 0.000000 -0.000001 0.000001 0.000001 -0.000003 -8.395400 33.279871 21.038916 6.092936 31.507499 48.663472 -0.000000 48.322393 0.000013 -20.121563 -43.295312 5.646331 17.912439 17.120568 -32.483546 12.694440 -52.014203 20.210858 0.000001 -0.000001 0.000003 0.276352 -8.899007 1.740154 5.888270 -4.491816 105.344200 -0.000000 0.000001 -0.000001 4.166158 -8.600804 42.153195 7.050152 -3.996498 120.947132 0.000000 -0.000001 -0.000001 -0.361101 -4.549250 57.044224 4.703208 -4.656944 90.567099 0.000001 0.000003 0.000002 -5.324596 -0.292089 51.887291 3.524515 -4.517636 75.909247 -0.000001 -0.000001 -0.000001 -0.000001 0.000003 -0.000002 -0.000000 0.000002 -0.000000 -0.000000 0.000001 -0.000000 -0.000000 0.000002 -0.000000 -0.000000 0.000002 -0.000000 -0.000000 0.000002 -0.000000 -0.000000 0.000001 -0.000000 -0.000000 0.000002 -0.000000 -0.000000 0.000002 -0.000000 -0.000000 0.000002 -0.000000 -0.000000 0.000001 -0.000000 0.000000 -0.000000 0.000000 0.000000 -0.000000 0.000000 0.000000 -0.000000 0.000000 
48.662609 70.053001 30.246727 4.347967 67.389283 -4.646058 0.000000 -0.000000 -0.000000 -18.836446 -10.332351 1.300300 19.706626 1.590959 -7.743521 -1.177904 -19.148968 6.091392 0.000000 0.000001 0.000000 0.000000 -0.000003 -0.000000 0.397900 -12.930474 0.049022 39.480146 -5.434757 -3.590718 -13.107377 -16.085604 10.232110 -0.000000 0.000002 -0.000000 -0.000000 0.000004 -0.000001 1.428450 15.247847 -1.551328 0.343534 12.111575 -1.597175 0.355242 12.030024 -2.142363 30.067729 -16.587200 7.620748 -36.544449 -68.821860 -2.824784 0.000000 -0.000001 -0.000000 0.000000 -0.000001 -0.000000 0.000000 -0.000001 0.000000 0.000000 -0.000001 0.000000 0.000000 -0.000001 -0.000000 0.000000 -0.000001 0.000000 0.000000 -0.000001 -0.000000 0.000000 -0.000001 -0.000000 0.000000 -0.000001 -0.000000 -1.967087 -8.442196 -14.580905 563.731685 -126.918302 505.300673 0.000026 -66.037336 0.000021 -133.517030 -3.963469 49.001799 -10.936430 -6.746919 10.333387 -18.089365 8.879819 2.392691 0.000001 0.000001 -0.000001 5.890370 8.200099 -88.621834 6.193132 5.841066 -93.357635 -0.000000 -0.000001 -0.000006 7.765561 7.904046 -107.399520 3.753027 5.463206 -68.954113 0.000007 0.000001 -0.000001 7.314712 8.035595 -105.794993 3.608011 5.405430 -67.422894 -0.000000 0.000002 -0.000001 10.390459 6.780251 -113.877149 1.175912 3.522162 -36.915127 -0.000004 0.000000 -0.000001 -0.000003 -0.000003 -0.000003 -8.428600 32.859050 21.486419 5.768049 31.090963 48.692002 -0.000021 48.134413 0.000016 -19.464975 -44.389437 4.704368 17.912443 17.120561 -32.483567 12.694444 -52.014203 20.210863 -0.000002 -0.000001 0.000000 0.276341 -8.899006 1.740138 5.888270 -4.491817 105.344200 -0.000001 -0.000002 -0.000000 4.166154 -8.600804 42.153189 7.050152 -3.996498 120.947132 -0.000000 0.000000 0.000001 -0.361106 -4.549246 57.044227 4.703206 -4.656943 90.567099 0.000001 0.000001 0.000002 -5.324604 -0.292082 51.887301 3.524513 -4.517636 75.909247 -0.000000 -0.000003 0.000000 -0.000001 -0.000001 0.000003 0.000000 0.000000 -0.000000 -0.000000 0.000000 0.000000 0.000000 0.000000 -0.000000 0.000000 0.000000 -0.000000 0.000000 0.000000 -0.000000 -0.000000 0.000000 0.000000 0.000000 0.000000 -0.000000 0.000000 0.000000 -0.000000 0.000000 0.000000 -0.000000 -0.000000 0.000000 0.000000 0.000000 -0.000000 -0.000000 0.000000 -0.000000 -0.000000 0.000000 -0.000000 -0.000000 
48.370216 70.032257 30.128801 4.078026 66.106580 -4.404872 -0.000000 0.000001 -0.000000 -18.986406 -10.096877 1.558604 19.873882 2.481335 -7.813094 -1.141960 -19.063721 5.967731 -0.000000 -0.000004 0.000000 0.000001 0.000000 -0.000000 1.252074 -11.761418 -0.160908 37.738848 -4.238721 -3.628732 -14.212756 -20.878942 8.843536 0.000001 -0.000001 -0.000000 -0.000000 -0.000001 -0.000001 1.399781 14.926979 -1.465856 0.349806 11.848934 -1.478821 0.356714 11.776925 -1.992126 29.489352 -16.410161 6.935820 -35.776346 -67.919818 -2.237553 -0.000001 -0.000001 -0.000000 -0.000001 -0.000001 -0.000000 -0.000001 -0.000001 0.000000 -0.000001 -0.000001 -0.000000 -0.000001 0.000000 0.000000 -0.000001 -0.000001 -0.000000 -0.000001 0.000000 0.000000 -0.000001 -0.000001 -0.000000 -0.000001 -0.000001 -0.000000 -1.896976 -8.276090 -14.474761 562.789501 -126.168374 504.520666 0.000031 -64.514367 0.000039 -133.165931 -2.289621 47.769315 -10.936557 -6.746936 10.333456 -18.089363 8.879822 2.392690 -0.000000 -0.000000 -0.000000 5.890373 8.200101 -88.621814 6.193145 5.841068 -93.357662 0.000000 0.000000 -0.000000 7.765553 7.904047 -107.399486 3.758024 5.465087 -69.006310 0.000000 0.000001 -0.000001 7.314701 8.035606 -105.794986 3.608016 5.405443 -67.422915 0.000005 0.000003 -0.000001 10.390454 6.780260 -113.877128 1.180767 3.528583 -36.993790 -0.000002 0.000001 -0.000000 0.000000 0.000001 -0.000000 -8.483173 32.397807 22.014842 5.553969 30.650341 48.597803 0.000003 48.025498 -0.000012 -19.267229 -45.436297 3.569820 17.912436 17.120573 -32.483557 12.694445 -52.014206 20.210864 0.000002 0.000000 -0.000001 0.276352 -8.899007 1.740147 5.888270 -4.491818 105.344200 -0.000001 -0.000002 -0.000000 4.166152 -8.600801 42.153199 7.050155 -3.996498 120.947132 0.000002 0.000001 0.000005 -0.361101 -4.549254 57.044248 4.703208 -4.656945 90.567099 0.000004 0.000001 -0.000002 -5.324606 -0.292082 51.887301 3.524514 -4.517634 75.909247 0.000000 0.000001 0.000001 -0.000001 -0.000004 0.000001 -0.000000 -0.000001 -0.000000 -0.000000 -0.000001 0.000000 -0.000000 -0.000001 -0.000000 -0.000000 -0.000001 -0.000000 -0.000000 -0.000001 -0.000000 -0.000000 -0.000001 -0.000000 -0.000000 -0.000001 -0.000000 -0.000000 -0.000001 -0.000000 -0.000000 -0.000001 -0.000000 -0.000000 -0.000001 -0.000000 -0.000000 0.000001 -0.000000 -0.000000 0.000001 -0.000000 -0.000000 0.000001 -0.000000 
48.064342 70.011749 30.007889 3.858791 64.891250 -4.125851 -0.000000 0.000000 -0.000000 -19.105170 -9.875827 1.719551 19.908588 3.411596 -7.852885 -1.020092 -19.026057 5.827899 0.000000 0.000001 0.000000 0.000000 -0.000001 -0.000001 2.021901 -11.468062 -0.478784 35.831241 -2.475786 -3.872939 -15.194408 -25.895071 7.159284 0.000002 -0.000000 0.000002 -0.000000 0.000002 -0.000000 1.405282 14.569879 -1.478618 0.371862 11.541077 -1.378603 0.372756 11.478283 -1.856314 28.899306 -16.213860 6.271608 -35.170693 -67.009647 -1.806526 -0.000000 0.000001 0.000000 -0.000000 0.000001 0.000000 -0.000000 0.000001 0.000000 -0.000000 0.000001 0.000000 -0.000000 0.000001 -0.000000 -0.000000 0.000001 0.000000 -0.000000 0.000001 -0.000000 -0.000000 0.000001 0.000000 -0.000000 0.000001 0.000000 -1.822197 -8.117081 -14.348528 561.935728 -125.327838 503.893436 0.000006 -62.965096 0.000006 -132.533127 -0.580732 46.575668 -10.936728 -6.746927 10.333245 -18.089374 8.879819 2.392689 0.000000 0.000001 0.000000 5.890376 8.200095 -88.621834 6.193141 5.841057 -93.357648 -0.000000 0.000002 -0.000002 7.765557 7.904042 -107.399493 3.763872 5.467348 -69.068007 0.000001 0.000003 -0.000001 7.314704 8.035584 -105.794979 3.608009 5.405449 -67.422908 0.000001 0.000001 -0.000002 10.390459 6.780249 -113.877128 1.186480 3.536153 -37.086688 -0.000001 -0.000001 0.000001 -0.000001 0.000001 0.000002 -8.552615 31.896901 22.612284 5.447670 30.142506 48.410841 -0.000004 48.027623 0.000012 -19.755385 -46.276126 2.025969 17.912448 17.120568 -32.483563 12.694440 -52.014206 20.210863 0.000002 -0.000001 0.000003 0.276347 -8.899011 1.740164 5.888273 -4.491817 105.344207 -0.000000 0.000001 0.000000 4.166158 -8.600804 42.153192 7.050151 -3.996495 120.947132 0.000003 -0.000001 -0.000003 -0.361107 -4.549247 57.044230 4.703205 -4.656944 90.567093 0.000001 0.000003 0.000004 -5.324607 -0.292082 51.887291 3.524512 -4.517638 75.909247 -0.000002 -0.000001 0.000000 0.000001 0.000001 -0.000002 -0.000000 -0.000001 0.000001 -0.000000 -0.000001 0.000000 -0.000000 -0.000001 0.000000 -0.000000 -0.000001 0.000000 -0.000000 -0.000001 0.000001 -0.000000 -0.000001 0.000000 -0.000000 -0.000001 0.000000 -0.000000 -0.000001 0.000000 -0.000000 -0.000001 0.000001 -0.000000 -0.000001 0.000000 -0.000000 0.000000 -0.000000 -0.000000 0.000000 -0.000000 -0.000000 0.000000 -0.000000 
